<svg xmlns="http://www.w3.org/2000/svg" xmlns:xlink="http://www.w3.org/1999/xlink" width="21" height="17.845" viewBox="0 0 21 17.845">
  <defs>
    <linearGradient id="linear-gradient" x1="0.5" x2="0.5" y2="1" gradientUnits="objectBoundingBox">
      <stop offset="0" stop-color="#f3c65d"/>
      <stop offset="1" stop-color="#e59f00"/>
    </linearGradient>
  </defs>
  <g id="Group_10245" data-name="Group 10245" transform="translate(-0.369 1.536)">
    <ellipse id="Ellipse_179" data-name="Ellipse 179" cx="6.194" cy="6.112" rx="6.194" ry="6.112" transform="translate(8.981 4.084)" fill="url(#linear-gradient)"/>
    <path id="hot-tub" d="M14.9,8.4H8.527L7.07,6.345A3.451,3.451,0,0,0,4.257,4.9H3.9A2.469,2.469,0,0,0,1.42,7.35V8.528A2.1,2.1,0,0,0,0,10.5v2.8a3.527,3.527,0,0,0,3.547,3.5h9.93a3.527,3.527,0,0,0,3.547-3.5V10.5A2.117,2.117,0,0,0,14.9,8.4ZM6.384,9.8v5.6H4.965V9.8ZM7.8,9.8H9.221v5.6H7.8Zm2.837,0h1.419v5.6H10.64ZM3.9,6.3h.355a2.026,2.026,0,0,1,1.651.848L6.8,8.4H2.838V7.35A1.058,1.058,0,0,1,3.9,6.3Zm-2.483,7V10.5a.706.706,0,0,1,.709-.7H3.547v5.6A2.117,2.117,0,0,1,1.419,13.3Zm14.186,0a2.117,2.117,0,0,1-2.128,2.1V9.8H14.9a.706.706,0,0,1,.709.7ZM2.128,1.75a1.773,1.773,0,0,1,3.547,0,1.773,1.773,0,0,1-3.547,0ZM13.477.82V.7a.7.7,0,0,1,.707-.7h0A.7.7,0,0,1,14.9.7v.12a1.69,1.69,0,0,0,.5,1.2A3.049,3.049,0,0,1,16.315,4.2a.709.709,0,0,1-1.419,0A1.667,1.667,0,0,0,14.4,3,3.049,3.049,0,0,1,13.478.82Zm-1.92,2.67A3.049,3.049,0,0,1,10.64,1.3V.7a.709.709,0,0,1,1.419,0v.6a1.691,1.691,0,0,0,.5,1.195,3.049,3.049,0,0,1,.917,2.185V4.9a.709.709,0,0,1-1.419,0V4.684a1.667,1.667,0,0,0-.5-1.195Z" transform="translate(0.368 -1.536)" fill="#063354"/>
  </g>
</svg>
