<svg id="Group_8889" data-name="Group 8889" xmlns="http://www.w3.org/2000/svg" xmlns:xlink="http://www.w3.org/1999/xlink" width="21.369" height="16.308" viewBox="0 0 21.369 16.308">
  <defs>
    <linearGradient id="linear-gradient" x1="0.5" x2="0.5" y2="1" gradientUnits="objectBoundingBox">
      <stop offset="0" stop-color="#f3c65d"/>
      <stop offset="1" stop-color="#e59f00"/>
    </linearGradient>
  </defs>
  <ellipse id="Ellipse_179" data-name="Ellipse 179" cx="6.194" cy="6.112" rx="6.194" ry="6.112" transform="translate(8.981 4.084)" fill="url(#linear-gradient)"/>
  <path id="bed" d="M14.221,4.954H9.73a3.739,3.739,0,0,0-3.305,2A2.614,2.614,0,0,0,2.245,9.017a2.531,2.531,0,0,0,.263,1.108H1.5V2.739A.744.744,0,0,0,.748,2,.744.744,0,0,0,0,2.739v13.3a.744.744,0,0,0,.748.739.744.744,0,0,0,.748-.739V14.557h14.97v1.477a.749.749,0,0,0,1.5,0V8.648A3.722,3.722,0,0,0,14.221,4.954ZM7.485,8.648A2.231,2.231,0,0,1,9.73,6.432h4.491a2.231,2.231,0,0,1,2.245,2.216v1.477H7.485Zm-3.742.369a1.123,1.123,0,1,1,1.123,1.108A1.115,1.115,0,0,1,3.742,9.017ZM1.5,13.079V11.6h14.97v1.477Z" transform="translate(0 -2)" fill="#063354"/>
</svg>
