<svg id="Icon1" xmlns="http://www.w3.org/2000/svg" xmlns:xlink="http://www.w3.org/1999/xlink" width="22.196" height="22.201" viewBox="0 0 22.196 22.201">
  <defs>
    <linearGradient id="linear-gradient" x1="0.5" x2="0.5" y2="1" gradientUnits="objectBoundingBox">
      <stop offset="0" stop-color="#006565"/>
      <stop offset="1" stop-color="#00a8a8"/>
    </linearGradient>
    <linearGradient id="linear-gradient-2" x1="0.5" x2="0.5" y2="1" gradientUnits="objectBoundingBox">
      <stop offset="0" stop-color="#f3c65d"/>
      <stop offset="1" stop-color="#e59f00"/>
    </linearGradient>
  </defs>
  <path id="Path_33" data-name="Path 33" d="M4.831,13.7a1.279,1.279,0,0,0,.042-.122,1.743,1.743,0,0,1,2.005-1.343.316.316,0,0,0,.239-.072q2.52-2.506,5.026-5.026a.3.3,0,0,0,.071-.22,1.746,1.746,0,0,1,.9-1.86,1.718,1.718,0,0,1,2.053.327Q17,7.2,18.814,9.028a1.718,1.718,0,0,1,.333,2.017,1.739,1.739,0,0,1-1.841.93.393.393,0,0,0-.263.083c-.146.116-.271.257-.409.391a1.348,1.348,0,0,1,.389,2.1l2.839,2.478,3.887,3.389c.8.7,1.6,1.39,2.4,2.1a2.515,2.515,0,0,1,.88,1.952,2.622,2.622,0,0,1-2.131,2.543c-.056.01-.11.029-.165.045h-.65c-.011-.009-.021-.024-.033-.026A2.788,2.788,0,0,1,22.317,26q-2.7-3.121-5.416-6.229-1.187-1.365-2.376-2.727a1.36,1.36,0,0,1-2.12-.422,3.3,3.3,0,0,1-.3.357.427.427,0,0,0-.147.433,1.627,1.627,0,0,1-.5,1.438,1.73,1.73,0,0,1-2.484-.048c-1.1-1.089-2.181-2.19-3.282-3.275a2.687,2.687,0,0,1-.862-1.313C4.831,14.043,4.831,13.87,4.831,13.7Zm6.624,2.648,4.855-4.854L12.694,7.88,7.843,12.732Zm8.308,5.4,1.953-1.951-5.279-4.6-1.273,1.272Zm1.767,2.033c.539.617,1.063,1.242,1.614,1.843a1.73,1.73,0,1,0,2.411-2.475c-.48-.427-.967-.845-1.451-1.267l-.358-.311ZM13.06,6.592a.9.9,0,0,0,.308.667q1.664,1.659,3.323,3.322c.112.112.22.229.34.334a.861.861,0,0,0,1.39-.379.882.882,0,0,0-.266-.944q-1.711-1.7-3.416-3.413a3.457,3.457,0,0,0-.265-.255.862.862,0,0,0-1.415.667Zm-6.5,6.489a.825.825,0,0,0-.784.512.808.808,0,0,0,.173.958q1.83,1.844,3.673,3.675A.864.864,0,1,0,10.843,17q-1.825-1.835-3.658-3.661A.828.828,0,0,0,6.563,13.081Zm6.623,2.943a.442.442,0,0,0,.264.46.437.437,0,0,0,.51-.125q1.187-1.188,2.374-2.376a.438.438,0,0,0,.036-.652.444.444,0,0,0-.654.045q-1.19,1.185-2.372,2.378A1.089,1.089,0,0,0,13.185,16.024Zm9.269,4.411L20.4,22.479l.515.588,2.126-2.114Z" transform="translate(-4.83 -4.849)" fill="url(#linear-gradient)"/>
  <path id="Path_34" data-name="Path 34" d="M4.85,294.9c.077-.223.137-.455.235-.668a2.226,2.226,0,0,1,.9-.945,4,4,0,0,1-.213-.532,1.5,1.5,0,0,1,1.46-1.884q3.684-.01,7.368,0a1.512,1.512,0,0,1,1.322,2.27c-.024.043-.046.087-.072.135.127.092.254.174.37.271a2.3,2.3,0,0,1,.757,2.149c-.014.134-.187.25-.286.374H4.851Q4.85,295.481,4.85,294.9Zm.876.289H16.112A1.282,1.282,0,0,0,14.82,293.9c-1.358-.005-2.717,0-4.075,0-1.243,0-2.486,0-3.728,0A1.282,1.282,0,0,0,5.726,295.188Zm5.215-3.454H7.3a.665.665,0,0,0-.672.411.653.653,0,0,0,.661.888q2.49,0,4.98,0c.758,0,1.516,0,2.273,0a.652.652,0,1,0,.011-1.3C13.352,291.732,12.146,291.733,10.941,291.733Z" transform="translate(-4.849 -273.868)" fill="url(#linear-gradient-2)"/>
  <path id="Path_35" data-name="Path 35" d="M101.662,78.9a1.07,1.07,0,0,1-.159.27q-.88.9-1.776,1.78a.433.433,0,0,1-.637.028.427.427,0,0,1,.023-.636c.594-.6,1.194-1.2,1.792-1.794a.426.426,0,0,1,.495-.11A.442.442,0,0,1,101.662,78.9Z" transform="translate(-93.367 -74.034)" fill="url(#linear-gradient)"/>
  <path id="Path_36" data-name="Path 36" d="M78.864,130.858a.418.418,0,0,1-.437-.412.428.428,0,0,1,.428-.446.439.439,0,0,1,.433.427A.431.431,0,0,1,78.864,130.858Z" transform="translate(-74.054 -122.563)" fill="url(#linear-gradient)"/>
</svg>
