<svg xmlns="http://www.w3.org/2000/svg" xmlns:xlink="http://www.w3.org/1999/xlink" width="22.523" height="28.191" viewBox="0 0 22.523 28.191">
  <defs>
    <linearGradient id="linear-gradient" x1="0.5" x2="0.5" y2="1" gradientUnits="objectBoundingBox">
      <stop offset="0" stop-color="#006565"/>
      <stop offset="1" stop-color="#00a8a8"/>
    </linearGradient>
  </defs>
  <g id="ios-notifications-outline" transform="translate(-9.033 -5.241)">
    <path id="Path_19" data-name="Path 19" d="M25.282,37.781a.913.913,0,0,0-.895.719,1.766,1.766,0,0,1-.352.768,1.332,1.332,0,0,1-1.134.416,1.354,1.354,0,0,1-1.134-.416,1.766,1.766,0,0,1-.352-.768.917.917,0,1,0-1.79.4A3.148,3.148,0,0,0,22.9,41.516,3.142,3.142,0,0,0,26.177,38.9a.922.922,0,0,0-.895-1.12Z" transform="translate(-2.625 -8.084)" fill="url(#linear-gradient)"/>
    <path id="Path_20" data-name="Path 20" d="M31.274,26.118c-1.085-1.43-3.22-2.269-3.22-8.674,0-6.574-2.9-9.216-5.609-9.85-.254-.063-.437-.148-.437-.416v-.2a1.728,1.728,0,0,0-1.691-1.733h-.042a1.728,1.728,0,0,0-1.691,1.733v.2c0,.261-.183.352-.437.416-2.713.641-5.609,3.276-5.609,9.85,0,6.4-2.135,7.236-3.22,8.674a1.4,1.4,0,0,0,1.12,2.241H30.175A1.4,1.4,0,0,0,31.274,26.118Zm-2.748.409H12.094a.309.309,0,0,1-.233-.514,8.536,8.536,0,0,0,1.48-2.353,15.968,15.968,0,0,0,1.008-6.215,10.806,10.806,0,0,1,1.473-6.116,4.521,4.521,0,0,1,2.727-1.945,2.469,2.469,0,0,0,1.311-.74A.557.557,0,0,1,20.7,8.63a2.553,2.553,0,0,0,1.325.754,4.521,4.521,0,0,1,2.727,1.945,10.806,10.806,0,0,1,1.473,6.116,15.968,15.968,0,0,0,1.008,6.215,8.633,8.633,0,0,0,1.515,2.389.291.291,0,0,1-.218.479Z" fill="url(#linear-gradient)"/>
  </g>
</svg>
