<svg xmlns="http://www.w3.org/2000/svg" xmlns:xlink="http://www.w3.org/1999/xlink" width="16.608" height="16.608" viewBox="0 0 16.608 16.608">
  <defs>
    <linearGradient id="linear-gradient" x1="0.5" x2="0.5" y2="1" gradientUnits="objectBoundingBox">
      <stop offset="0" stop-color="#006565"/>
      <stop offset="1" stop-color="#00a8a8"/>
    </linearGradient>
  </defs>
  <g id="Group_3" data-name="Group 3" transform="translate(-813.792 -30.792)">
    <path id="house-building" d="M13.148,10.38h-.692a.692.692,0,1,1,0-1.384h.692a.692.692,0,0,1,0,1.384Zm.692,2.076a.691.691,0,0,0-.692-.692h-.692a.692.692,0,1,0,0,1.384h.692A.691.691,0,0,0,13.84,12.456Zm-2.768-8.3a.691.691,0,0,0-.692-.692H9.688a.692.692,0,0,0,0,1.384h.692A.691.691,0,0,0,11.072,4.152Zm2.768,0a.691.691,0,0,0-.692-.692h-.692a.692.692,0,1,0,0,1.384h.692A.691.691,0,0,0,13.84,4.152Zm0,2.768a.691.691,0,0,0-.692-.692h-.692a.692.692,0,1,0,0,1.384h.692A.691.691,0,0,0,13.84,6.92Zm2.768,6.228V3.46A3.464,3.464,0,0,0,13.148,0H9.688a3.464,3.464,0,0,0-3.46,3.46.692.692,0,1,0,1.384,0A2.079,2.079,0,0,1,9.688,1.384h3.46A2.079,2.079,0,0,1,15.224,3.46v9.688a2.079,2.079,0,0,1-2.076,2.076h-.692a.692.692,0,1,0,0,1.384h.692A3.464,3.464,0,0,0,16.608,13.148Zm-5.536.346V10.621A3.44,3.44,0,0,0,9.744,7.9L7.668,6.27a3.455,3.455,0,0,0-4.264,0L1.328,7.9A3.439,3.439,0,0,0,0,10.62v2.873a3.118,3.118,0,0,0,3.114,3.114H7.958a3.118,3.118,0,0,0,3.114-3.114ZM6.816,7.361,8.892,8.986a2.066,2.066,0,0,1,.8,1.635v2.873a1.732,1.732,0,0,1-1.73,1.73H3.114a1.732,1.732,0,0,1-1.73-1.73V10.621a2.065,2.065,0,0,1,.8-1.635L4.257,7.362a2.074,2.074,0,0,1,2.559,0Zm.1,5.1V11.072a.692.692,0,0,0-.692-.692H4.844a.692.692,0,0,0-.692.692v1.384a.692.692,0,0,0,.692.692H6.228A.692.692,0,0,0,6.92,12.456Z" transform="translate(813.792 30.792)" fill="url(#linear-gradient)"/>
  </g>
</svg>
